<svg width="180" height="55" viewBox="0 0 180 55" fill="none" xmlns="http://www.w3.org/2000/svg">
<path d="M172.361 54.7065H7.60091C3.78902 54.7065 0.69873 51.5939 0.69873 47.7535V6.95315C0.69873 3.1128 3.78902 0.000136633 7.60091 0.000136633H172.361C176.173 0.000136633 179.263 3.1128 179.263 6.95315V47.7535C179.263 51.5939 176.173 54.7065 172.361 54.7065Z" fill="black"/>
<path d="M16.9276 22.3529C14.0307 27.4168 15.8722 35.1023 19.0754 39.7611C20.6744 42.0911 22.2933 44.1833 24.5105 44.1833C24.552 44.1833 24.5942 44.1822 24.6369 44.1798C25.6787 44.1379 26.4316 43.8153 27.1593 43.5035C27.9765 43.1522 28.8221 42.7889 30.1477 42.7889C31.4087 42.7889 32.2134 43.1402 32.9914 43.4796C33.759 43.8141 34.5488 44.1606 35.7162 44.1379C38.2136 44.0913 39.7473 41.8342 41.1003 39.8435C42.5122 37.7657 43.2204 35.7475 43.4593 34.9756L43.4688 34.9457C43.5144 34.8083 43.4497 34.659 43.3194 34.598C43.3194 34.598 43.3028 34.5909 43.2992 34.5897C42.8593 34.408 39.001 32.6838 38.9607 27.9844C38.923 24.1667 41.8547 22.145 42.4428 21.7782L42.4702 21.7602C42.534 21.7196 42.5783 21.6539 42.5934 21.5798C42.6085 21.5045 42.593 21.4269 42.5499 21.3635C40.5263 18.3799 37.4247 17.9306 36.1756 17.8769C35.9948 17.8578 35.8078 17.8494 35.6199 17.8494C34.1532 17.8494 32.7481 18.4074 31.6191 18.8555C30.84 19.1649 30.1666 19.4326 29.703 19.4326C29.1811 19.4326 28.5043 19.1614 27.7207 18.8483C26.6723 18.4301 25.4842 17.9545 24.2267 17.9545C24.1966 17.9545 24.1673 17.9545 24.1384 17.9557C21.2138 17.9987 18.4505 19.6847 16.9276 22.3529Z" fill="white"/>
<path d="M36.1789 9.66465C34.4083 9.73753 32.2839 10.8356 31.0146 12.334C29.935 13.5922 28.8813 15.6928 29.1587 17.8089C29.1762 17.9416 29.2835 18.0431 29.4155 18.0539C29.5352 18.0635 29.6569 18.0682 29.7786 18.0682C31.5099 18.0682 33.3779 17.1028 34.6537 15.5494C35.9962 13.9089 36.6751 11.8023 36.4698 9.91676C36.4535 9.7686 36.3243 9.65867 36.1789 9.66465Z" fill="white"/>
<path d="M59.8632 20.4671C60.6469 20.4671 61.3381 20.3106 61.9362 19.9975C62.5341 19.6833 62.9949 19.2459 63.3182 18.6843C63.6413 18.1227 63.8031 17.4787 63.8031 16.7546C63.8031 16.0305 63.6413 15.3865 63.3182 14.8249C62.9949 14.2633 62.5341 13.826 61.9362 13.5117C61.3381 13.1986 60.6469 13.0421 59.8632 13.0421H57.1719V20.4671H59.8632ZM56.5537 12.4805H59.9117C60.7925 12.4805 61.5744 12.6633 62.2574 13.0302C62.9403 13.3958 63.4717 13.9024 63.8516 14.55C64.2313 15.1977 64.4214 15.9325 64.4214 16.7546C64.4214 17.5767 64.2313 18.3115 63.8516 18.9592C63.4717 19.6068 62.9403 20.1134 62.2574 20.479C61.5744 20.8459 60.7925 21.0287 59.9117 21.0287H56.5537V12.4805Z" fill="white"/>
<path d="M70.1498 20.1866C70.5336 19.9584 70.8367 19.6418 71.059 19.2343C71.2812 18.8268 71.3925 18.3632 71.3925 17.8423C71.3925 17.3213 71.2812 16.8565 71.059 16.449C70.8367 16.0428 70.5336 15.7249 70.1498 15.4967C69.7659 15.2685 69.3315 15.155 68.8467 15.155C68.3617 15.155 67.9272 15.2685 67.5434 15.4967C67.1595 15.7249 66.8565 16.0428 66.6342 16.449C66.4118 16.8565 66.3008 17.3213 66.3008 17.8423C66.3008 18.3632 66.4118 18.8268 66.6342 19.2343C66.8565 19.6418 67.1595 19.9584 67.5434 20.1866C67.9272 20.4148 68.3617 20.5284 68.8467 20.5284C69.3315 20.5284 69.7659 20.4148 70.1498 20.1866ZM67.2282 20.6634C66.7473 20.3862 66.3695 20.0014 66.0948 19.5091C65.82 19.0168 65.6826 18.4612 65.6826 17.8423C65.6826 17.2233 65.82 16.6677 66.0948 16.1742C66.3695 15.6819 66.7473 15.2972 67.2282 15.0212C67.709 14.7439 68.2484 14.6053 68.8467 14.6053C69.4447 14.6053 69.9841 14.7439 70.4651 15.0212C70.9458 15.2972 71.3237 15.6819 71.5985 16.1742C71.8732 16.6677 72.0107 17.2233 72.0107 17.8423C72.0107 18.4612 71.8732 19.0168 71.5985 19.5091C71.3237 20.0014 70.9458 20.3862 70.4651 20.6634C69.9841 20.9394 69.4447 21.078 68.8467 21.078C68.2484 21.078 67.709 20.9394 67.2282 20.6634Z" fill="white"/>
<path d="M82.7518 14.654L80.351 21.0287H79.7813L77.6477 15.4964L75.502 21.0287H74.9443L72.5439 14.654H73.1258L75.2352 20.3452L77.393 14.654H77.9143L80.0602 20.3333L82.1932 14.654H82.7518Z" fill="white"/>
<path d="M89.128 15.3016C89.5882 15.7652 89.8183 16.4332 89.8183 17.3042V21.0287H89.2122V17.3532C89.2122 16.6363 89.0331 16.0914 88.6738 15.7162C88.3132 15.3422 87.8103 15.1547 87.1639 15.1547C86.4202 15.1547 85.8343 15.3793 85.4062 15.8262C84.978 16.2743 84.7633 16.8765 84.7633 17.634V21.0287H84.1572V14.654H84.7396V16.0341C84.9578 15.586 85.2828 15.2359 85.7157 14.9838C86.1474 14.7317 86.6586 14.605 87.2493 14.605C88.0404 14.605 88.6667 14.8368 89.128 15.3016Z" fill="white"/>
<path d="M92.3154 11.9667H92.9207V21.0287H92.3154V11.9667Z" fill="white"/>
<path d="M99.2553 20.1866C99.6396 19.9584 99.942 19.6418 100.165 19.2343C100.387 18.8268 100.498 18.3632 100.498 17.8423C100.498 17.3213 100.387 16.8565 100.165 16.449C99.942 16.0428 99.6396 15.7249 99.2553 15.4967C98.8722 15.2685 98.4369 15.155 97.953 15.155C97.4679 15.155 97.0326 15.2685 96.6495 15.4967C96.2652 15.7249 95.9628 16.0428 95.7398 16.449C95.518 16.8565 95.4065 17.3213 95.4065 17.8423C95.4065 18.3632 95.518 18.8268 95.7398 19.2343C95.9628 19.6418 96.2652 19.9584 96.6495 20.1866C97.0326 20.4148 97.4679 20.5284 97.953 20.5284C98.4369 20.5284 98.8722 20.4148 99.2553 20.1866ZM96.334 20.6634C95.8525 20.3862 95.4753 20.0014 95.2001 19.5091C94.9262 19.0168 94.7886 18.4612 94.7886 17.8423C94.7886 17.2233 94.9262 16.6677 95.2001 16.1742C95.4753 15.6819 95.8525 15.2972 96.334 15.0212C96.8144 14.7439 97.354 14.6053 97.953 14.6053C98.5508 14.6053 99.0892 14.7439 99.5708 15.0212C100.051 15.2972 100.429 15.6819 100.705 16.1742C100.979 16.6677 101.116 17.2233 101.116 17.8423C101.116 18.4612 100.979 19.0168 100.705 19.5091C100.429 20.0014 100.051 20.3862 99.5708 20.6634C99.0892 20.9394 98.5508 21.078 97.953 21.078C97.354 21.078 96.8144 20.9394 96.334 20.6634Z" fill="white"/>
<path d="M106.105 20.2105C106.473 19.9668 106.749 19.6131 106.935 19.1483V17.9522H104.778C104.155 17.9522 103.705 18.0657 103.426 18.2939C103.147 18.5222 103.008 18.8352 103.008 19.2343C103.008 19.6489 103.161 19.9775 103.469 20.2177C103.776 20.4579 104.209 20.5773 104.766 20.5773C105.292 20.5773 105.738 20.4555 106.105 20.2105ZM106.912 15.2099C107.332 15.6126 107.542 16.2053 107.542 16.9867V21.029H106.96V19.8939C106.758 20.2679 106.463 20.5594 106.076 20.7673C105.688 20.974 105.223 21.078 104.681 21.078C103.977 21.078 103.422 20.9119 103.014 20.5773C102.606 20.244 102.402 19.8043 102.402 19.2582C102.402 18.7289 102.59 18.2999 102.966 17.9701C103.342 17.6403 103.942 17.4754 104.766 17.4754H106.935V16.9628C106.935 16.3678 106.777 15.9161 106.457 15.6066C106.137 15.2972 105.671 15.143 105.057 15.143C104.637 15.143 104.235 15.2159 103.851 15.3629C103.466 15.5087 103.141 15.7046 102.874 15.9484L102.572 15.5087C102.886 15.2243 103.267 15.002 103.711 14.8431C104.155 14.6842 104.62 14.6053 105.105 14.6053C105.889 14.6053 106.491 14.8073 106.912 15.2099Z" fill="white"/>
<path d="M113.828 20.1866C114.211 19.9584 114.514 19.6418 114.736 19.2343C114.959 18.8268 115.07 18.3632 115.07 17.8423C115.07 17.3213 114.959 16.8565 114.736 16.449C114.514 16.0428 114.211 15.7249 113.828 15.4967C113.443 15.2685 113.009 15.155 112.524 15.155C112.039 15.155 111.605 15.2685 111.221 15.4967C110.837 15.7249 110.534 16.0428 110.312 16.449C110.089 16.8565 109.979 17.3213 109.979 17.8423C109.979 18.3632 110.089 18.8268 110.312 19.2343C110.534 19.6418 110.837 19.9584 111.221 20.1866C111.605 20.4148 112.039 20.5284 112.524 20.5284C113.009 20.5284 113.443 20.4148 113.828 20.1866ZM115.676 11.967V21.029H115.083V19.527C114.831 20.0241 114.48 20.4065 114.027 20.6753C113.575 20.9442 113.062 21.078 112.488 21.078C111.898 21.078 111.364 20.9394 110.888 20.6634C110.411 20.3862 110.037 20.0038 109.767 19.5151C109.495 19.0264 109.36 18.4684 109.36 17.8423C109.36 17.215 109.495 16.6558 109.767 16.1623C110.037 15.67 110.411 15.2876 110.888 15.014C111.364 14.7416 111.898 14.6053 112.488 14.6053C113.053 14.6053 113.561 14.7392 114.009 15.008C114.458 15.2769 114.811 15.6521 115.07 16.1324V11.967H115.676Z" fill="white"/>
<path d="M125.127 20.1866C125.51 19.9584 125.813 19.6418 126.035 19.2343C126.257 18.8268 126.368 18.3632 126.368 17.8423C126.368 17.3213 126.257 16.8565 126.035 16.449C125.813 16.0428 125.51 15.7249 125.127 15.4967C124.742 15.2685 124.308 15.155 123.823 15.155C123.338 15.155 122.904 15.2685 122.52 15.4967C122.135 15.7249 121.833 16.0428 121.61 16.449C121.388 16.8565 121.277 17.3213 121.277 17.8423C121.277 18.3632 121.388 18.8268 121.61 19.2343C121.833 19.6418 122.135 19.9584 122.52 20.1866C122.904 20.4148 123.338 20.5284 123.823 20.5284C124.308 20.5284 124.742 20.4148 125.127 20.1866ZM122.204 20.6634C121.724 20.3862 121.345 20.0014 121.071 19.5091C120.796 19.0168 120.659 18.4612 120.659 17.8423C120.659 17.2233 120.796 16.6677 121.071 16.1742C121.345 15.6819 121.724 15.2972 122.204 15.0212C122.686 14.7439 123.224 14.6053 123.823 14.6053C124.421 14.6053 124.961 14.7439 125.441 15.0212C125.922 15.2972 126.3 15.6819 126.575 16.1742C126.849 16.6677 126.986 17.2233 126.986 17.8423C126.986 18.4612 126.849 19.0168 126.575 19.5091C126.3 20.0014 125.922 20.3862 125.441 20.6634C124.961 20.9394 124.421 21.078 123.823 21.078C123.224 21.078 122.686 20.9394 122.204 20.6634Z" fill="white"/>
<path d="M133.835 15.3016C134.296 15.7652 134.526 16.4332 134.526 17.3042V21.0287H133.92V17.3532C133.92 16.6363 133.74 16.0914 133.381 15.7162C133.021 15.3422 132.518 15.1547 131.871 15.1547C131.127 15.1547 130.542 15.3793 130.113 15.8262C129.685 16.2743 129.471 16.8765 129.471 17.634V21.0287H128.865V14.654H129.446V16.0341C129.665 15.586 129.99 15.2359 130.423 14.9838C130.855 14.7317 131.367 14.605 131.956 14.605C132.748 14.605 133.375 14.8368 133.835 15.3016Z" fill="white"/>
<path d="M143.279 20.6263C143.126 20.7733 142.934 20.8844 142.703 20.9621C142.472 21.0398 142.233 21.078 141.982 21.078C141.432 21.078 141.007 20.9251 140.709 20.6204C140.41 20.3145 140.26 19.8891 140.26 19.3442V15.1789H139.097V14.6543H140.26V13.2623H140.866V14.6543H142.879V15.1789H140.866V19.2833C140.866 19.6979 140.966 20.0134 141.164 20.2296C141.362 20.4447 141.655 20.5535 142.043 20.5535C142.438 20.5535 142.765 20.4352 143.025 20.1986L143.279 20.6263Z" fill="white"/>
<path d="M149.933 15.3016C150.395 15.7652 150.625 16.4332 150.625 17.3042V21.0287H150.019V17.3532C150.019 16.6363 149.839 16.0914 149.479 15.7162C149.12 15.3422 148.617 15.1547 147.971 15.1547C147.227 15.1547 146.641 15.3793 146.213 15.8262C145.783 16.2743 145.57 16.8765 145.57 17.634V21.0287H144.964V11.9667H145.57V15.9851C145.788 15.5454 146.111 15.206 146.54 14.9659C146.968 14.7257 147.474 14.605 148.055 14.605C148.847 14.605 149.473 14.8368 149.933 15.3016Z" fill="white"/>
<path d="M154.274 15.4417C153.918 15.6413 153.633 15.9221 153.42 16.2841C153.205 16.6474 153.082 17.056 153.05 17.5125H157.899C157.875 17.056 157.754 16.6486 157.536 16.2913C157.317 15.9328 157.03 15.652 156.675 15.4477C156.319 15.2446 155.919 15.143 155.474 15.143C155.029 15.143 154.63 15.2422 154.274 15.4417ZM158.481 17.988H153.038C153.053 18.4851 153.179 18.9272 153.414 19.3132C153.648 19.7003 153.966 19.999 154.365 20.2105C154.765 20.4232 155.216 20.5284 155.717 20.5284C156.129 20.5284 156.511 20.4531 156.863 20.3025C157.214 20.152 157.507 19.9297 157.742 19.637L158.093 20.0397C157.818 20.3742 157.473 20.6311 157.056 20.8092C156.64 20.9884 156.189 21.078 155.704 21.078C155.075 21.078 154.512 20.9394 154.02 20.6634C153.527 20.3862 153.141 20.0038 152.863 19.5151C152.584 19.0264 152.444 18.4684 152.444 17.8423C152.444 17.2233 152.576 16.6677 152.838 16.1742C153.101 15.6819 153.463 15.2972 153.923 15.0212C154.383 14.7439 154.9 14.6053 155.474 14.6053C156.048 14.6053 156.563 14.7416 157.02 15.014C157.476 15.2876 157.837 15.6676 158.099 16.1563C158.361 16.645 158.493 17.1982 158.493 17.8172L158.481 17.988Z" fill="white"/>
<path d="M64.6377 37.7994L61.9031 31.414L59.1892 37.7994H64.6377ZM65.5286 39.9287H58.2777L56.8482 43.3102H54.0723L60.598 28.7004H63.2497L69.7962 43.3102H66.9788L65.5286 39.9287Z" fill="white"/>
<path d="M79.585 40.263C80.1994 39.6225 80.507 38.7801 80.507 37.737C80.507 36.6938 80.1994 35.8515 79.585 35.2122C78.9704 34.5717 78.1867 34.2515 77.2338 34.2515C76.6122 34.2515 76.053 34.3949 75.5558 34.6793C75.0584 34.9649 74.6649 35.3723 74.3749 35.9004C74.0848 36.4298 73.9399 37.0416 73.9399 37.737C73.9399 38.4336 74.0848 39.0454 74.3749 39.5735C74.6649 40.1028 75.0584 40.5091 75.5558 40.7947C76.053 41.0803 76.6122 41.2224 77.2338 41.2224C78.1867 41.2224 78.9704 40.9022 79.585 40.263ZM80.4138 32.7495C81.263 33.2227 81.9295 33.8907 82.4135 34.7522C82.8962 35.6149 83.1381 36.6102 83.1381 37.737C83.1381 38.8637 82.8962 39.8627 82.4135 40.7325C81.9295 41.6012 81.263 42.2727 80.4138 42.7459C79.5643 43.2191 78.601 43.4557 77.5238 43.4557C76.0322 43.4557 74.8513 42.955 73.9813 41.9525V47.3582H71.3916V32.1641H73.8569V33.6254C74.2849 33.0973 74.8132 32.7006 75.4418 32.4365C76.0701 32.1724 76.7641 32.0398 77.5238 32.0398C78.601 32.0398 79.5643 32.2764 80.4138 32.7495Z" fill="white"/>
<path d="M93.7964 40.263C94.4107 39.6225 94.7191 38.7801 94.7191 37.737C94.7191 36.6938 94.4107 35.8515 93.7964 35.2122C93.182 34.5717 92.398 34.2515 91.4456 34.2515C90.8241 34.2515 90.2643 34.3949 89.7673 34.6793C89.2703 34.9649 88.8766 35.3723 88.586 35.9004C88.2966 36.4298 88.1519 37.0416 88.1519 37.737C88.1519 38.4336 88.2966 39.0454 88.586 39.5735C88.8766 40.1028 89.2703 40.5091 89.7673 40.7947C90.2643 41.0803 90.8241 41.2224 91.4456 41.2224C92.398 41.2224 93.182 40.9022 93.7964 40.263ZM94.6254 32.7495C95.4746 33.2227 96.1412 33.8907 96.6251 34.7522C97.1079 35.6149 97.3498 36.6102 97.3498 37.737C97.3498 38.8637 97.1079 39.8627 96.6251 40.7325C96.1412 41.6012 95.4746 42.2727 94.6254 42.7459C93.7762 43.2191 92.8131 43.4557 91.735 43.4557C90.2441 43.4557 89.0628 42.955 88.1934 41.9525V47.3582H85.603V32.1641H88.0689V33.6254C88.497 33.0973 89.0248 32.7006 89.6534 32.4365C90.2821 32.1724 90.9759 32.0398 91.735 32.0398C92.8131 32.0398 93.7762 32.2764 94.6254 32.7495Z" fill="white"/>
<path d="M107.034 43.0384C105.991 42.7182 105.166 42.294 104.559 41.7647L105.491 39.6569C106.084 40.1301 106.813 40.516 107.677 40.8148C108.539 41.1147 109.406 41.264 110.277 41.264C111.354 41.264 112.158 41.0896 112.69 40.7419C113.222 40.3942 113.487 39.9353 113.487 39.3642C113.487 38.9472 113.339 38.603 113.041 38.3318C112.745 38.0606 112.369 37.8479 111.913 37.6949C111.457 37.542 110.835 37.3687 110.049 37.1728C108.943 36.9087 108.049 36.6446 107.366 36.3806C106.682 36.1165 106.095 35.7019 105.605 35.1391C105.114 34.5751 104.869 33.8128 104.869 32.8533C104.869 32.0467 105.086 31.3119 105.522 30.6511C105.957 29.9903 106.613 29.4658 107.489 29.0751C108.367 28.6867 109.44 28.4908 110.711 28.4908C111.596 28.4908 112.465 28.6031 113.321 28.8253C114.178 29.0476 114.916 29.3678 115.538 29.7848L114.689 31.8926C114.053 31.5174 113.39 31.2318 112.7 31.0371C112.009 30.8423 111.339 30.7455 110.691 30.7455C109.627 30.7455 108.837 30.9259 108.318 31.288C107.8 31.65 107.542 32.1304 107.542 32.7278C107.542 33.1448 107.69 33.4866 107.988 33.7506C108.284 34.0147 108.66 34.2238 109.117 34.3767C109.572 34.5297 110.194 34.7041 110.981 34.8989C112.058 35.1486 112.942 35.4103 113.632 35.6815C114.322 35.9528 114.913 36.3662 115.404 36.923C115.894 37.4798 116.139 38.2314 116.139 39.1766C116.139 39.9843 115.921 40.7144 115.487 41.368C115.052 42.0228 114.392 42.5438 113.509 42.9333C112.624 43.3228 111.547 43.5176 110.277 43.5176C109.157 43.5176 108.076 43.3575 107.034 43.0384Z" fill="white"/>
<path d="M125.213 42.7039C124.909 42.9548 124.539 43.1424 124.105 43.2679C123.67 43.3933 123.211 43.4554 122.727 43.4554C121.511 43.4554 120.573 43.1352 119.91 42.496C119.247 41.8555 118.915 40.9235 118.915 39.6987V34.3349H117.092V32.2475H118.915V29.7012H121.505V32.2475H124.467V34.3349H121.505V39.6366C121.505 40.1791 121.636 40.5925 121.898 40.8781C122.161 41.1637 122.541 41.3059 123.038 41.3059C123.618 41.3059 124.101 41.1529 124.488 40.847L125.213 42.7039Z" fill="white"/>
<path d="M134.307 40.2627C134.929 39.6223 135.239 38.7799 135.239 37.7367C135.239 36.6936 134.929 35.8512 134.307 35.212C133.686 34.5715 132.898 34.2513 131.946 34.2513C130.992 34.2513 130.208 34.5715 129.594 35.212C128.979 35.8512 128.672 36.6936 128.672 37.7367C128.672 38.7799 128.979 39.6223 129.594 40.2627C130.208 40.902 130.992 41.2222 131.946 41.2222C132.898 41.2222 133.686 40.902 134.307 40.2627ZM128.921 42.7254C128.023 42.2379 127.322 41.5604 126.818 40.6905C126.314 39.8206 126.062 38.836 126.062 37.7367C126.062 36.6375 126.314 35.6565 126.818 34.7938C127.322 33.9311 128.023 33.2571 128.921 32.7696C129.819 32.2833 130.827 32.0396 131.946 32.0396C133.078 32.0396 134.094 32.2833 134.991 32.7696C135.888 33.2571 136.589 33.9311 137.093 34.7938C137.597 35.6565 137.85 36.6375 137.85 37.7367C137.85 38.836 137.597 39.8206 137.093 40.6905C136.589 41.5604 135.888 42.2379 134.991 42.7254C134.094 43.2117 133.078 43.4554 131.946 43.4554C130.827 43.4554 129.819 43.2117 128.921 42.7254Z" fill="white"/>
<path d="M146.738 32.0401V34.523C146.517 34.4812 146.317 34.4609 146.137 34.4609C145.128 34.4609 144.342 34.756 143.775 35.3475C143.209 35.939 142.926 36.7909 142.926 37.9045V43.3102H140.336V32.1643H142.801V33.793C143.547 32.6244 144.859 32.0401 146.738 32.0401Z" fill="white"/>
<path d="M151.534 34.8666C150.96 35.3613 150.611 36.0185 150.488 36.8394H156.765C156.654 36.0329 156.315 35.3781 155.749 34.8774C155.184 34.3767 154.479 34.1258 153.637 34.1258C152.808 34.1258 152.107 34.3732 151.534 34.8666ZM159.189 38.572H150.508C150.66 39.3929 151.057 40.0429 151.699 40.5232C152.342 41.0036 153.139 41.2437 154.092 41.2437C155.307 41.2437 156.309 40.8399 157.096 40.0321L158.484 41.6392C157.987 42.2379 157.358 42.6907 156.599 42.9966C155.839 43.3025 154.983 43.4554 154.03 43.4554C152.815 43.4554 151.744 43.2117 150.819 42.7254C149.894 42.2379 149.179 41.5604 148.674 40.6905C148.17 39.8206 147.919 38.836 147.919 37.7367C147.919 36.6518 148.163 35.6744 148.654 34.8045C149.144 33.9346 149.825 33.2571 150.694 32.7696C151.565 32.2833 152.546 32.0396 153.637 32.0396C154.714 32.0396 155.677 32.2785 156.526 32.7589C157.375 33.2392 158.038 33.9143 158.515 34.7842C158.992 35.6529 159.23 36.659 159.23 37.7989C159.23 37.9805 159.216 38.2374 159.189 38.572Z" fill="white"/>
</svg>
