<svg width="182" height="56" viewBox="0 0 182 56" fill="none" xmlns="http://www.w3.org/2000/svg">
<path d="M174.684 55.6191H7.17446C3.2986 55.6191 0.156738 52.4545 0.156738 48.5489V7.06889C0.156738 3.16446 3.2986 -0.000147071 7.17446 -0.000147071H174.684C178.56 -0.000147071 181.701 3.16446 181.701 7.06889V48.5489C181.701 52.4545 178.56 55.6191 174.684 55.6191Z" fill="black"/>
<path d="M59.6534 33.5968H62.1854V39.383C61.4444 39.977 60.5798 40.4338 59.5918 40.7508C58.6037 41.0691 57.588 41.2283 56.5453 41.2283C55.0767 41.2283 53.7527 40.9064 52.5726 40.2637C51.3922 39.6211 50.466 38.733 49.7937 37.5996C49.1212 36.4662 48.7852 35.187 48.7852 33.7632C48.7852 32.3394 49.1212 31.0602 49.7937 29.9268C50.466 28.7934 51.3957 27.9041 52.5829 27.2615C53.7697 26.6189 55.1044 26.2969 56.5864 26.2969C57.7939 26.2969 58.8919 26.4986 59.8799 26.8983C60.868 27.3004 61.6981 27.8871 62.3706 28.661L60.6827 30.3204C59.5847 29.2149 58.2605 28.661 56.71 28.661C55.6942 28.661 54.7921 28.876 54.0033 29.3048C53.2139 29.7337 52.5964 30.335 52.1506 31.1088C51.7045 31.8827 51.4817 32.7671 51.4817 33.7632C51.4817 34.7302 51.7045 35.6012 52.1506 36.3763C52.5964 37.1501 53.2139 37.7587 54.0033 38.2009C54.7921 38.6431 55.6875 38.8642 56.6894 38.8642C57.8144 38.8642 58.8024 38.6152 59.6534 38.1171V33.5968Z" fill="white"/>
<path d="M72.7452 37.9934C73.3627 37.358 73.6715 36.521 73.6715 35.4836C73.6715 34.4473 73.3627 33.6115 72.7452 32.975C72.1277 32.3396 71.3456 32.0213 70.3986 32.0213C69.4518 32.0213 68.6728 32.3396 68.0623 32.975C67.4516 33.6115 67.1463 34.4473 67.1463 35.4836C67.1463 36.521 67.4516 37.358 68.0623 37.9934C68.6728 38.63 69.4518 38.947 70.3986 38.947C71.3456 38.947 72.1277 38.63 72.7452 37.9934ZM67.3934 40.44C66.5012 39.9565 65.8049 39.2823 65.3041 38.4186C64.8031 37.5548 64.5527 36.5769 64.5527 35.4836C64.5527 34.3927 64.8031 33.4172 65.3041 32.5607C65.8049 31.7031 66.5012 31.0325 67.3934 30.549C68.2852 30.0655 69.287 29.8225 70.3986 29.8225C71.5237 29.8225 72.5323 30.0655 73.4245 30.549C74.3163 31.0325 75.0127 31.7031 75.5137 32.5607C76.0145 33.4172 76.2651 34.3927 76.2651 35.4836C76.2651 36.5769 76.0145 37.5548 75.5137 38.4186C75.0127 39.2823 74.3163 39.9565 73.4245 40.44C72.5323 40.9248 71.5237 41.1665 70.3986 41.1665C69.287 41.1665 68.2852 40.9248 67.3934 40.44Z" fill="white"/>
<path d="M86.0213 37.9934C86.6387 37.358 86.9474 36.521 86.9474 35.4836C86.9474 34.4473 86.6387 33.6115 86.0213 32.975C85.4039 32.3396 84.6213 32.0213 83.6747 32.0213C82.7281 32.0213 81.949 32.3396 81.3386 32.975C80.7278 33.6115 80.4225 34.4473 80.4225 35.4836C80.4225 36.521 80.7278 37.358 81.3386 37.9934C81.949 38.63 82.7281 38.947 83.6747 38.947C84.6213 38.947 85.4039 38.63 86.0213 37.9934ZM80.6696 40.44C79.7774 39.9565 79.0811 39.2823 78.5803 38.4186C78.0792 37.5548 77.8291 36.5769 77.8291 35.4836C77.8291 34.3927 78.0792 33.4172 78.5803 32.5607C79.0811 31.7031 79.7774 31.0325 80.6696 30.549C81.5615 30.0655 82.5629 29.8225 83.6747 29.8225C84.7998 29.8225 85.8091 30.0655 86.7002 30.549C87.5926 31.0325 88.2883 31.7031 88.79 32.5607C89.2904 33.4172 89.5412 34.3927 89.5412 35.4836C89.5412 36.5769 89.2904 37.5548 88.79 38.4186C88.2883 39.2823 87.5926 39.9565 86.7002 40.44C85.8091 40.9248 84.7998 41.1665 83.6747 41.1665C82.5629 41.1665 81.5615 40.9248 80.6696 40.44Z" fill="white"/>
<path d="M99.4524 37.4442C100.077 36.8563 100.389 36.0922 100.389 35.1519C100.389 34.2262 100.077 33.473 99.4524 32.8923C98.8278 32.3116 98.0283 32.0213 97.054 32.0213C96.0664 32.0213 95.2596 32.3116 94.6362 32.8923C94.0116 33.473 93.6993 34.2262 93.6993 35.1519C93.6993 36.0922 94.0116 36.8563 94.6362 37.4442C95.2596 38.031 96.0664 38.325 97.054 38.325C98.0283 38.325 98.8278 38.031 99.4524 37.4442ZM102.92 29.9476V39.3418C102.92 43.2402 100.945 45.1887 96.9925 45.1887C95.9361 45.1887 94.9341 45.0539 93.9875 44.7842C93.0409 44.5145 92.2583 44.1245 91.6409 43.6131L92.7937 41.6633C93.2736 42.0642 93.8813 42.3861 94.6157 42.6279C95.3489 42.8696 96.0941 42.9911 96.849 42.9911C98.056 42.9911 98.9411 42.7141 99.5043 42.1614C100.066 41.6086 100.348 40.7656 100.348 39.6309V39.0515C99.9082 39.5349 99.374 39.9018 98.7422 40.1497C98.1115 40.3987 97.4181 40.5238 96.6633 40.5238C95.6202 40.5238 94.6772 40.2991 93.8331 39.8496C92.989 39.4001 92.3234 38.7672 91.8362 37.952C91.349 37.1357 91.1055 36.2027 91.1055 35.1519C91.1055 34.1023 91.349 33.1717 91.8362 32.3639C92.3234 31.5548 92.989 30.9292 93.8331 30.487C94.6772 30.0448 95.6202 29.8225 96.6633 29.8225C97.4591 29.8225 98.1826 29.9549 98.835 30.2173C99.4862 30.4797 100.032 30.8806 100.471 31.42V29.9476H102.92Z" fill="white"/>
<path d="M106.297 25.6337H108.869V41.0206H106.297V25.6337Z" fill="white"/>
<path d="M114.93 32.6324C114.361 33.1232 114.015 33.7768 113.89 34.5931H120.127C120.017 33.7913 119.682 33.1414 119.119 32.6433C118.556 32.1452 117.857 31.8962 117.02 31.8962C116.196 31.8962 115.499 32.1428 114.93 32.6324ZM122.536 36.3133H113.911C114.062 37.1297 114.457 37.7759 115.095 38.2521C115.733 38.7296 116.525 38.9677 117.472 38.9677C118.68 38.9677 119.675 38.5668 120.458 37.765L121.836 39.3625C121.343 39.9565 120.718 40.406 119.963 40.7097C119.208 41.0146 118.357 41.1665 117.41 41.1665C116.203 41.1665 115.14 40.9248 114.22 40.44C113.301 39.9565 112.591 39.2823 112.09 38.4186C111.588 37.5548 111.339 36.5769 111.339 35.4836C111.339 34.406 111.581 33.4342 112.07 32.5704C112.556 31.7067 113.232 31.0325 114.097 30.549C114.961 30.0655 115.936 29.8225 117.02 29.8225C118.09 29.8225 119.047 30.0618 119.891 30.538C120.735 31.0155 121.393 31.6861 121.867 32.5498C122.34 33.4147 122.577 34.4133 122.577 35.5467C122.577 35.7265 122.563 35.9817 122.536 36.3133Z" fill="white"/>
<path d="M139.436 33.8046C140.039 33.3065 140.342 32.5946 140.342 31.669C140.342 30.742 140.039 30.0302 139.436 29.5321C138.832 29.0352 137.947 28.7862 136.781 28.7862H133.652V34.5505H136.781C137.947 34.5505 138.832 34.3015 139.436 33.8046ZM140.167 27.1267C141.093 27.5422 141.803 28.1363 142.298 28.9101C142.791 29.6851 143.038 30.6036 143.038 31.669C143.038 32.7198 142.791 33.6357 142.298 34.4157C141.803 35.1968 141.093 35.7957 140.167 36.2099C139.241 36.6242 138.153 36.8319 136.904 36.8319H133.652V41.0206H130.976V26.5048H136.904C138.153 26.5048 139.241 26.7125 140.167 27.1267Z" fill="white"/>
<path d="M145.672 25.6337H148.246V41.0206H145.672V25.6337Z" fill="white"/>
<path d="M157.188 38.8328C157.69 38.5364 158.043 38.1112 158.25 37.5573V36.272H155.594C154.112 36.272 153.371 36.7628 153.371 37.7444C153.371 38.2145 153.556 38.5874 153.927 38.8644C154.297 39.1414 154.812 39.2787 155.47 39.2787C156.115 39.2787 156.688 39.1305 157.188 38.8328ZM159.535 30.9948C160.394 31.776 160.822 32.9543 160.822 34.5299V41.0207H158.393V39.6735C158.077 40.157 157.629 40.5275 157.045 40.7826C156.461 41.0377 155.758 41.1665 154.935 41.1665C154.112 41.1665 153.391 41.0244 152.774 40.7413C152.156 40.4583 151.679 40.0635 151.344 39.5593C151.007 39.0539 150.838 38.4842 150.838 37.8488C150.838 36.8527 151.206 36.0545 151.941 35.4532C152.674 34.8519 153.83 34.5506 155.409 34.5506H158.25V34.3854C158.25 33.6115 158.019 33.0163 157.56 32.602C157.099 32.1866 156.417 31.98 155.511 31.98C154.894 31.98 154.287 32.076 153.69 32.2704C153.092 32.4635 152.588 32.7332 152.177 33.0782L151.168 31.1916C151.744 30.7494 152.437 30.4105 153.248 30.176C154.057 29.9404 154.914 29.8225 155.82 29.8225C157.439 29.8225 158.678 30.2137 159.535 30.9948Z" fill="white"/>
<path d="M174.201 29.9476L169.055 41.9124C168.575 43.115 167.991 43.9618 167.305 44.4525C166.619 44.9433 165.789 45.1887 164.815 45.1887C164.266 45.1887 163.724 45.0988 163.188 44.919C162.654 44.7392 162.214 44.4902 161.872 44.1731L162.9 42.2646C163.147 42.5003 163.439 42.6862 163.776 42.8247C164.112 42.9632 164.451 43.0324 164.795 43.0324C165.247 43.0324 165.621 42.9146 165.916 42.6801C166.211 42.4444 166.483 42.0508 166.729 41.4981L166.914 41.062L162.119 29.9476H164.795L168.253 38.1379L171.731 29.9476H174.201Z" fill="white"/>
<path d="M43.8403 27.0987L36.9234 23.0776L31.2349 28.6184L36.4338 33.6818L43.8403 29.374C44.2481 29.1371 44.4918 28.7119 44.4918 28.237C44.4918 27.762 44.2481 27.3368 43.8403 27.0987Z" fill="#FFD109"/>
<path d="M35.7503 22.395L28.1384 17.9682L11.4575 9.35633L30.2983 27.705L35.7503 22.395Z" fill="#06EF79"/>
<path d="M11.7334 47.61L28.1661 38.4891L35.2595 34.3648L30.2974 29.5311L11.7334 47.61Z" fill="#F93646"/>
<path d="M10.3439 10.0999L10.3262 47.1543L29.3599 28.6174L10.3439 10.0999Z" fill="#05D5FB"/>
<path d="M56.0795 14.7962H54.1745V13.9434H57.026V18.3836H56.0795V14.7962ZM53.3901 18.4468C52.8089 18.4468 52.2672 18.3192 51.765 18.0641C51.2628 17.809 50.8251 17.4664 50.4515 17.0352C50.0779 16.6051 49.7872 16.1192 49.5799 15.5798C49.3721 15.0404 49.2686 14.4828 49.2686 13.9058C49.2686 13.3032 49.3721 12.7323 49.5799 12.1929C49.7872 11.6535 50.0758 11.1749 50.4452 10.757C50.8145 10.3391 51.2503 10.0111 51.7525 9.77176C52.2547 9.53365 52.8005 9.4146 53.3901 9.4146C54.2449 9.4146 54.9506 9.59439 55.5068 9.95398C56.0628 10.3136 56.4821 10.7825 56.7643 11.3595L55.9052 11.9609C55.6479 11.4421 55.2951 11.0582 54.8468 10.8068C54.3985 10.5565 53.9046 10.4302 53.3651 10.4302C52.9169 10.4302 52.51 10.5274 52.1449 10.7193C51.7795 10.9113 51.4662 11.1724 51.2048 11.5029C50.9433 11.8333 50.744 12.2075 50.6071 12.6254C50.4701 13.0445 50.4016 13.4794 50.4016 13.9301C50.4016 14.4075 50.4783 14.857 50.6319 15.2785C50.7855 15.7013 51.0034 16.073 51.2856 16.3949C51.5678 16.7181 51.8958 16.9708 52.2695 17.1542C52.6429 17.3389 53.0454 17.43 53.4772 17.43C53.9833 17.43 54.465 17.3012 54.9215 17.0412C55.378 16.7825 55.8097 16.3852 56.2166 15.8495V17.0169C55.4196 17.9694 54.4774 18.4468 53.3901 18.4468Z" fill="white"/>
<path d="M64.7332 17.3804V18.3838H58.7314V9.47795H64.6211V10.4814H59.8522V13.3666H63.9985V14.3069H59.8522V17.3804H64.7332Z" fill="white"/>
<path d="M72.64 10.4814H69.5893V18.3838H68.4685V10.4814H65.418V9.47795H72.64V10.4814Z" fill="white"/>
<path d="M76.6865 18.3838V9.47795H77.8071V18.3838H76.6865Z" fill="white"/>
<path d="M81.0448 11.5601V18.3838H79.9243V9.47795H80.8705L86.2744 16.4401V9.4901H87.3958V18.3838H86.3744L81.0448 11.5601Z" fill="white"/>
<path d="M93.2224 13.9301C93.2224 14.382 93.2947 14.8193 93.4406 15.2409C93.5853 15.6636 93.7903 16.0378 94.0568 16.3646C94.3221 16.6901 94.6417 16.9501 95.0155 17.1421C95.3893 17.334 95.8041 17.43 96.2599 17.43C96.7338 17.43 97.1571 17.3304 97.5309 17.1299C97.9035 16.9282 98.2219 16.661 98.4835 16.3269C98.744 15.9916 98.9442 15.6162 99.0804 15.1971C99.2179 14.7792 99.2866 14.3565 99.2866 13.9301C99.2866 13.4794 99.2131 13.0445 99.0684 12.6254C98.9225 12.2075 98.7151 11.8333 98.4461 11.5029C98.176 11.1724 97.8565 10.9137 97.4863 10.7254C97.1173 10.5371 96.7085 10.4436 96.2599 10.4436C95.7872 10.4436 95.364 10.542 94.9902 10.7375C94.6163 10.9343 94.2992 11.2004 94.0375 11.5345C93.7759 11.8697 93.5745 12.2439 93.4334 12.657C93.2923 13.0712 93.2224 13.4952 93.2224 13.9301ZM96.2479 18.4468C95.6256 18.4468 95.0613 18.3204 94.5548 18.0702C94.0484 17.8187 93.6107 17.4786 93.2405 17.0473C92.8715 16.6173 92.5869 16.1325 92.3879 15.5932C92.189 15.0538 92.0889 14.4998 92.0889 13.9301C92.0889 13.3373 92.195 12.7699 92.4072 12.2305C92.6182 11.6912 92.9125 11.2101 93.2911 10.7886C93.6685 10.3658 94.1099 10.0317 94.6163 9.78512C95.1228 9.53851 95.6751 9.4146 96.2732 9.4146C96.8954 9.4146 97.4598 9.54458 97.9662 9.80334C98.4727 10.0633 98.908 10.4095 99.2734 10.8444C99.6387 11.2793 99.9209 11.7653 100.12 12.2998C100.32 12.8355 100.419 13.3834 100.419 13.9434C100.419 14.5375 100.315 15.1036 100.108 15.643C99.9004 16.1824 99.6074 16.6634 99.23 17.085C98.8525 17.5077 98.41 17.8406 97.9035 18.0823C97.397 18.3253 96.846 18.4468 96.2479 18.4468Z" fill="white"/>
<path d="M103.096 11.5601V18.3838H101.976V9.47795H102.923L108.326 16.4401V9.4901H109.446V18.3838H108.426L103.096 11.5601Z" fill="white"/>
</svg>
