<svg width="601" height="129" viewBox="0 0 601 129" fill="none" xmlns="http://www.w3.org/2000/svg">
<path d="M0.976809 123.101L1.67537 0.193437L27.241 0.338744L26.9784 46.5489L27.7585 46.5534C28.8929 44.0792 30.5276 41.5678 32.6626 39.0193C34.8379 36.431 37.6507 34.2865 41.1013 32.5857C44.5921 30.8451 48.918 29.9894 54.0792 30.0188C60.8006 30.057 66.992 31.8526 72.6532 35.4057C78.3147 38.9187 82.8258 44.2057 86.1865 51.2666C89.5475 58.2874 91.198 67.079 91.1379 77.6414C91.0795 87.9236 89.3698 96.5961 86.0088 103.659C82.688 110.682 78.1767 115.997 72.4747 119.606C66.813 123.175 60.4814 124.939 53.4799 124.899C48.5188 124.871 44.3025 124.027 40.8311 122.367C37.3996 120.707 34.5907 118.63 32.4043 116.137C30.2182 113.604 28.5522 111.054 27.4065 108.487L26.2663 108.481L26.1824 123.244L0.976809 123.101ZM26.2643 77.1526C26.2331 82.6338 26.9661 87.4192 28.4633 91.5087C29.9604 95.5983 32.1428 98.7915 35.0105 101.088C37.8784 103.345 41.3728 104.485 45.4937 104.509C49.6546 104.532 53.1819 103.412 56.0755 101.148C58.9693 98.8439 61.168 95.6556 62.6715 91.5831C64.2153 87.4709 65.0024 82.7341 65.0328 77.373C65.0631 72.0518 64.3495 67.3666 62.8922 63.3172C61.4348 59.2679 59.2723 56.0949 56.4046 53.798C53.5369 51.5011 50.0026 50.3407 45.8017 50.3168C41.6408 50.2932 38.1138 51.3734 35.2206 53.5575C32.3675 55.7419 30.1693 58.8502 28.626 62.8824C27.0827 66.9147 26.2954 71.6714 26.2643 77.1526ZM147.061 125.731C137.579 125.677 129.428 123.711 122.609 119.831C115.829 115.911 110.619 110.4 106.979 103.298C103.338 96.1554 101.546 87.7231 101.601 78.0009C101.655 68.5188 103.543 60.2075 107.264 53.0668C110.986 45.9261 116.199 40.3743 122.903 36.4114C129.647 32.4488 137.54 30.4931 146.582 30.5445C152.664 30.5791 158.319 31.5915 163.549 33.5817C168.82 35.5321 173.404 38.4589 177.303 42.3621C181.242 46.2654 184.295 51.164 186.462 57.0578C188.629 62.9116 189.69 69.7594 189.646 77.6011L189.606 84.6227L111.769 84.1803L111.859 68.3368L165.631 68.6424C165.651 64.9616 164.87 61.6963 163.286 58.8466C161.701 55.9969 159.494 53.7637 156.662 52.1472C153.871 50.491 150.615 49.6523 146.894 49.6311C143.013 49.609 139.567 50.4897 136.556 52.273C133.586 54.0166 131.252 56.3839 129.554 59.375C127.857 62.3261 126.978 65.622 126.917 69.2626L126.832 84.3259C126.806 88.8869 127.624 92.8325 129.285 96.1628C130.987 99.4933 133.392 102.068 136.503 103.886C139.613 105.704 143.309 106.625 147.59 106.649C150.431 106.666 153.034 106.28 155.399 105.494C157.764 104.707 159.791 103.518 161.48 101.927C163.17 100.336 164.461 98.3833 165.355 96.0677L188.991 97.7625C187.758 103.437 185.27 108.384 181.525 112.604C177.82 116.784 173.04 120.037 167.186 122.365C161.371 124.652 154.663 125.775 147.061 125.731Z" fill="#61E4A3"/>
<path d="M226.575 1.4717L255.751 95.0211L256.891 95.0276L287.189 1.8162L315.995 1.97993L272.927 124.646L239.44 124.456L197.709 1.30763L226.575 1.4717ZM357.978 126.93C348.656 126.877 340.606 124.851 333.827 120.851C327.088 116.812 321.899 111.221 318.258 104.079C314.618 96.8961 312.825 88.5838 312.879 79.1417C312.933 69.6196 314.82 61.3083 318.542 54.2076C322.263 47.0669 327.516 41.5354 334.3 37.6129C341.124 33.6507 349.197 31.6961 358.519 31.7491C367.841 31.8021 375.872 33.8482 382.611 37.8875C389.39 41.8871 394.599 47.4781 398.239 54.6606C401.88 61.8031 403.673 70.1354 403.619 79.6575C403.565 89.0996 401.677 97.3909 397.956 104.532C394.234 111.632 388.962 117.164 382.137 121.126C375.353 125.048 367.3 126.983 357.978 126.93ZM358.211 107.126C362.452 107.151 365.999 105.97 368.854 103.586C371.708 101.162 373.868 97.853 375.332 93.6603C376.836 89.4678 377.603 84.6909 377.634 79.3297C377.664 73.9686 376.951 69.1833 375.495 64.974C374.078 60.7648 371.957 57.4319 369.13 54.9753C366.303 52.5186 362.769 51.2782 358.529 51.2541C354.248 51.2297 350.64 52.4295 347.705 54.8535C344.811 57.2777 342.611 60.586 341.107 64.7785C339.643 68.9712 338.896 73.7482 338.865 79.1094C338.835 84.4706 339.528 89.2557 340.944 93.4648C342.401 97.6742 344.562 101.007 347.429 103.464C350.336 105.881 353.93 107.102 358.211 107.126ZM443.374 2.70391L442.675 125.611L417.109 125.466L417.808 2.5586L443.374 2.70391ZM509.836 33.8094L509.727 53.0137L454.215 52.6982L454.324 33.4939L509.836 33.8094ZM467.052 11.4807L492.618 11.626L492.13 97.5649C492.116 99.9255 492.466 101.768 493.178 103.092C493.891 104.377 494.886 105.283 496.164 105.81C497.481 106.338 499 106.606 500.72 106.616C501.921 106.623 503.121 106.53 504.323 106.336C505.524 106.103 506.446 105.928 507.086 105.812L510.999 124.859C509.717 125.252 507.914 125.702 505.59 126.209C503.266 126.756 500.444 127.08 497.122 127.181C490.96 127.386 485.563 126.535 480.933 124.628C476.343 122.722 472.778 119.781 470.24 115.805C467.702 111.83 466.47 106.821 466.545 100.78L467.052 11.4807ZM522.613 126.065L522.7 110.822L568.147 55.2062L568.151 54.546L524.581 54.2984L524.697 33.8939L599.054 34.3165L598.959 50.9402L556.28 105.191L556.276 105.852L600.206 106.101L600.09 126.506L522.613 126.065Z" fill="#223739"/>
</svg>
